<svg width="40" height="40" viewBox="0 0 118 96" fill="none" xmlns="http://www.w3.org/2000/svg">
<path fill-rule="evenodd" clip-rule="evenodd" d="M97 69C97 75 79.6948 77.9892 58.708 77.9892C37.7212 77.9892 20 74.2467 20 69C20 66.9674 21.455 66.2568 22.9658 65.519C23.3133 65.3493 23.6637 65.1781 24 64.9892V57.5C24.1883 56.7468 23.5256 56.3482 22.7865 55.9035C21.563 55.1675 20.1298 54.3053 22 51.5C28 47 51.2321 46 58 46C63.2999 46 86.5 46.5 94.5 51C97.6655 52.9784 95.5077 55.27 94.2218 56.6356C93.8827 56.9957 93.6043 57.2914 93.5 57.5V65C96.2526 66.0667 97 67 97 69ZM62.0354 57C62.0354 58.933 60.4684 60.5 58.5354 60.5C56.6024 60.5 55.0354 58.933 55.0354 57C55.0354 55.067 56.6024 53.5 58.5354 53.5C60.4684 53.5 62.0354 55.067 62.0354 57ZM72.5 60C73.8807 60 75 58.8807 75 57.5C75 56.1193 73.8807 55 72.5 55C71.1193 55 70 56.1193 70 57.5C70 58.8807 71.1193 60 72.5 60ZM47 57.5C47 58.8807 45.8807 60 44.5 60C43.1193 60 42 58.8807 42 57.5C42 56.1193 43.1193 55 44.5 55C45.8807 55 47 56.1193 47 57.5ZM58.708 76C75.8288 76 89.708 74.7091 89.708 72.5C89.708 70.2909 75.8288 69 58.708 69C41.5872 69 29.5 69.7909 29.5 72C29.5 74.2091 41.5872 76 58.708 76Z" fill="#b28756"/>
<path d="M96.5 51C96.5 51.9493 117.951 11.1299 117 12C115.602 13.2785 108.5 22 99 23.5C100.5 26 101 28 101 31C101 31 101.5 41 92.5 42.5C91.7521 42.3879 88.6427 41.3955 87 39C86.441 37.882 85.5 25 95.5 20.5C89 13.5 89.5 1.5 89.5 1.5C89.5 1.5 86 16.5 75 17.5C79.5 20.5 79 29.5 79 29.5C79 35.5 71.2027 41.44 69 40.3284C64.631 38.1236 61.8896 34.0153 63.5 26.5C64.052 23.924 69 15.5 69 15.5C60.5 10 58.5 1.14441e-05 58.5 1.14441e-05C58.5 1.14441e-05 58.5 8.50001 49 15.5C49 15.5 54.5 24 54.5 26.5C55.6113 34.094 52.3866 38.172 47.6365 40.3284C45.0344 41.5097 38 40 38 29.5C38 29.5 37.5 23.5 41.5 17.5C32 16.5 27 0.5 27 0.5C27 0.5 29.5 16.5 22 20C34.5 29.5 30.8452 38.4576 30 39.5C28.5 43.5 24.7154 42.4092 24 42.5C16.5019 41.0567 16.013 32.9613 16.5 28C16.6879 26.0864 18.6638 24.2134 18 24C6.5 20 2.43402 13.7785 1 12.5C0.0240587 11.6299 20.5 51 20.5 51C23.5 47 40 44.5 58.5 44.5C83 45.5 95.5 48 96.5 51Z" fill="#b28756"/>
<path d="M26.3281 94.7988V96H23.1348V94.7988L23.7324 94.7109L26.2754 87.4687H28.502L31.0508 94.7109L31.6484 94.7988V96H28.4609V94.7988L29.0176 94.6934L28.7598 93.7676H26.0176L25.7715 94.6934L26.3281 94.7988ZM27.3594 89.4434L27.2598 89.7715L26.4512 92.3262H28.3203L27.4883 89.7422L27.3945 89.4434H27.3594ZM48.552 91.623L47.0579 96H45.1653L43.1966 88.7637L42.2298 88.6758V87.4687H46.0794V88.6758L45.1302 88.8105L46.1966 93.1758H46.2317L46.3723 92.6191L48.0423 87.4687H49.4602L51.218 92.8594L51.3411 93.2285H51.3763L51.4759 92.8594L52.472 88.8105L51.4934 88.6758V87.4687H55.2669V88.6758L54.3587 88.7637L52.302 96H50.468L48.9973 91.5879L48.8157 90.9785H48.7805L48.552 91.623ZM69.1588 94.7988V96H65.9654V94.7988L66.5631 94.7109L69.106 87.4687H71.3326L73.8814 94.7109L74.4791 94.7988V96H71.2916V94.7988L71.8482 94.6934L71.5904 93.7676H68.8482L68.6021 94.6934L69.1588 94.7988ZM70.19 89.4434L70.0904 89.7715L69.2818 92.3262H71.1509L70.3189 89.7422L70.2252 89.4434H70.19ZM89.4901 94.7988V96H85.8866V94.7988L86.6424 94.6465L88.91 91.8398L86.742 88.834L86.0858 88.6758V87.4687H89.7713V88.6758L88.951 88.7519L90.158 90.4453L91.412 88.7519L90.6327 88.6758V87.4687H94.2303V88.6758L93.492 88.834L91.3885 91.5937L93.7674 94.6406L94.6112 94.7988V96H90.8143V94.7988L91.494 94.7285L90.1815 92.9355L88.8162 94.7285L89.4901 94.7988Z" fill="#b28756"/>
</svg>
